<svg width="207" height="38" viewBox="0 0 207 38" fill="none" xmlns="http://www.w3.org/2000/svg">
<path d="M0 29C0 28.4477 0.447715 28 1 28H40C40.5523 28 41 28.4477 41 29V31C41 31.5523 40.5523 32 40 32H0.999999C0.447714 32 0 31.5523 0 31V29Z" fill="#FAF3E0"/>
<path d="M0 33H7V37C7 37.5523 6.55228 38 6 38H1C0.447715 38 0 37.5523 0 37V33Z" fill="#FAF3E0"/>
<path d="M17 33H24V37C24 37.5523 23.5523 38 23 38H18C17.4477 38 17 37.5523 17 37V33Z" fill="#FAF3E0"/>
<path d="M34 33H41V37C41 37.5523 40.5523 38 40 38H35C34.4477 38 34 37.5523 34 37V33Z" fill="#FAF3E0"/>
<rect x="9.4668" y="16.6016" width="6.06667" height="6.06667" fill="#8D6E63"/>
<path d="M6.8667 16.6C6.8667 15.1641 8.03076 14 9.4667 14H15.5334C16.9693 14 18.1334 15.1641 18.1334 16.6V16.6H6.8667V16.6Z" fill="#8D6E63"/>
<path d="M16.9746 14.0996L18.9004 16.4365V26.9004H6.09961V16.4053L8.00977 14.0996H16.9746ZM9.96289 22.7715L10.1074 22.6982L12.5 21.502L14.8926 22.6982L15.0371 22.7715V16.9941H9.96289V22.7715ZM8.2832 14.748L7.04492 16.2168L6.90625 16.3818H18.0771L17.9395 16.2168L16.7012 14.748L16.6719 14.7129H8.31348L8.2832 14.748Z" fill="#FAF3E0" stroke="#6D4C41" stroke-width="0.2"/>
<rect x="25.4668" y="16.6016" width="6.06667" height="6.06667" fill="#8D6E63"/>
<path d="M22.8662 16.6C22.8662 15.1641 24.0303 14 25.4662 14H31.5329C32.9688 14 34.1329 15.1641 34.1329 16.6V16.6H22.8662V16.6Z" fill="#8D6E63"/>
<path d="M32.9746 14.0996L34.9004 16.4365V26.9004H22.0996V16.4053L24.0098 14.0996H32.9746ZM25.9629 22.7715L26.1074 22.6982L28.5 21.502L30.8926 22.6982L31.0371 22.7715V16.9941H25.9629V22.7715ZM24.2832 14.748L23.0449 16.2168L22.9062 16.3818H34.0771L33.9395 16.2168L32.7012 14.748L32.6719 14.7129H24.3135L24.2832 14.748Z" fill="#FAF3E0" stroke="#6D4C41" stroke-width="0.2"/>
<rect x="17.4668" y="2.60156" width="6.06667" height="6.06667" fill="#8D6E63"/>
<path d="M14.8662 2.6C14.8662 1.16406 16.0303 0 17.4662 0H23.5329C24.9688 0 26.1329 1.16406 26.1329 2.6V2.6H14.8662V2.6Z" fill="#8D6E63"/>
<path d="M24.9746 0.0996094L26.9004 2.43652V12.9004H14.0996V2.40527L16.0098 0.0996094H24.9746ZM17.9629 8.77148L18.1074 8.69824L20.5 7.50195L22.8926 8.69824L23.0371 8.77148V2.99414H17.9629V8.77148ZM16.2832 0.748047L15.0449 2.2168L14.9062 2.38184H26.0771L25.9395 2.2168L24.7012 0.748047L24.6719 0.712891H16.3135L16.2832 0.748047Z" fill="#FAF3E0" stroke="#6D4C41" stroke-width="0.2"/>
<path d="M54.35 8.6C54.35 8.95 54.525 9.225 54.875 9.425C55.2417 9.625 55.8083 9.84167 56.575 10.075C57.4917 10.375 58.2417 10.6667 58.825 10.95C59.425 11.2333 59.9417 11.675 60.375 12.275C60.825 12.875 61.05 13.6583 61.05 14.625C61.05 17.725 59.0333 19.275 55 19.275C54.3333 19.275 53.5167 19.2167 52.55 19.1C51.6 18.9833 50.7333 18.8333 49.95 18.65C49.9833 18.3 50.05 17.7917 50.15 17.125C50.2667 16.4417 50.375 15.9333 50.475 15.6C51.0583 15.6833 51.9333 15.7833 53.1 15.9C54.2833 16.0167 55.175 16.075 55.775 16.075C56.125 16.075 56.3333 16.05 56.4 16C56.5 15.9333 56.575 15.825 56.625 15.675C56.6917 15.5083 56.725 15.3667 56.725 15.25C56.725 14.9167 56.5667 14.6667 56.25 14.5C55.9333 14.3167 55.3917 14.1 54.625 13.85C53.7083 13.5667 52.95 13.275 52.35 12.975C51.75 12.675 51.225 12.2083 50.775 11.575C50.325 10.9417 50.1 10.1083 50.1 9.075C50.1 8.34167 50.2667 7.625 50.6 6.925C50.9333 6.20833 51.275 5.725 51.625 5.475C51.8917 5.29167 52.4417 5.11667 53.275 4.95C54.1083 4.78333 54.8917 4.7 55.625 4.7C57.4917 4.7 59.0167 4.875 60.2 5.225C60.1833 5.55833 60.125 6.01667 60.025 6.6C59.9417 7.18333 59.85 7.71667 59.75 8.2L59.175 8.175C57.0083 8.025 55.625 7.95 55.025 7.95C54.775 7.95 54.6333 7.95833 54.6 7.975C54.5333 8.00833 54.475 8.08333 54.425 8.2C54.375 8.31667 54.35 8.45 54.35 8.6ZM67.4344 14.275C67.4344 14.575 67.4427 14.8917 67.4594 15.225C67.476 15.5417 67.526 15.7417 67.6094 15.825C67.726 15.9417 68.1344 16 68.8344 16L69.6844 15.975C69.8344 16.775 69.9094 17.7 69.9094 18.75C69.5927 18.8667 69.126 18.975 68.5094 19.075C67.9094 19.175 67.3344 19.225 66.7844 19.225C65.6344 19.225 64.7427 18.975 64.1094 18.475C63.4927 17.9583 63.1844 17.1667 63.1844 16.1V9.95H61.3094V7.675L63.1844 7.5L64.3094 4.75L67.4344 4.575V7.5H70.0844V9.95H67.4344V14.275ZM76.9129 19.325C74.9129 19.325 73.4129 18.8583 72.4129 17.925C71.4296 16.975 70.9379 15.4833 70.9379 13.45C70.9379 12.3333 71.0379 11.3583 71.2379 10.525C71.4546 9.675 71.7129 9.08333 72.0129 8.75C72.3962 8.31667 73.0962 7.95833 74.1129 7.675C75.1462 7.39167 76.1129 7.25 77.0129 7.25C79.1629 7.25 80.6962 7.70833 81.6129 8.625C82.5296 9.54167 82.9879 11.0083 82.9879 13.025C82.9879 15.1917 82.4962 16.7833 81.5129 17.8C80.5296 18.8167 78.9962 19.325 76.9129 19.325ZM76.9879 16.4C77.6379 16.4 78.0629 16.175 78.2629 15.725C78.4629 15.2583 78.5629 14.4417 78.5629 13.275C78.5629 12.4583 78.5212 11.8333 78.4379 11.4C78.3546 10.95 78.1962 10.625 77.9629 10.425C77.7462 10.2083 77.4046 10.1 76.9379 10.1C76.2712 10.1 75.8879 10.1583 75.7879 10.275C75.6546 10.3917 75.5462 10.7583 75.4629 11.375C75.3796 11.9917 75.3379 12.6333 75.3379 13.3C75.3379 14.4333 75.4462 15.2333 75.6629 15.7C75.8962 16.1667 76.3379 16.4 76.9879 16.4ZM94.2947 18.65C92.9447 19.1 91.4364 19.325 89.7697 19.325C87.9031 19.325 86.5031 18.8583 85.5697 17.925C84.6531 16.975 84.1947 15.5 84.1947 13.5C84.1947 12.5167 84.3281 11.55 84.5947 10.6C84.8614 9.63333 85.1447 8.98333 85.4447 8.65C85.7947 8.26667 86.4781 7.94167 87.4947 7.675C88.5281 7.40833 89.5947 7.275 90.6947 7.275C91.8447 7.275 93.0031 7.375 94.1697 7.575C94.1364 7.99167 94.0781 8.48333 93.9947 9.05C93.9281 9.6 93.8531 10.0917 93.7697 10.525C92.7364 10.4583 91.7614 10.425 90.8447 10.425C89.9447 10.425 89.3697 10.475 89.1197 10.575C88.9864 10.625 88.8614 10.9667 88.7447 11.6C88.6447 12.2333 88.5947 12.825 88.5947 13.375C88.5947 14.1083 88.6947 14.675 88.8947 15.075C89.1114 15.4583 89.4447 15.725 89.8947 15.875C90.3447 16.025 90.9531 16.1 91.7197 16.1C92.0531 16.1 92.7864 16.0667 93.9197 16L94.2947 18.65ZM107.953 19H103.303L100.928 14.325C100.695 13.8417 100.386 13.5333 100.003 13.4V19H95.7281V4L100.003 3.825V12.35C100.403 12.1833 100.745 11.8417 101.028 11.325L103.153 7.5L107.828 7.475L105.403 11.375C105.02 11.9917 104.603 12.4833 104.153 12.85C104.536 13.2667 104.97 13.9 105.453 14.75L107.953 19ZM131.223 19H127.023L126.698 11.15C126.648 9.6 126.589 8.425 126.523 7.625H126.448C126.248 8.25833 126.014 9.24167 125.748 10.575L125.623 11.2L123.898 19H119.698L118.248 11.975L117.998 10.725C117.648 9.175 117.406 8.14167 117.273 7.625H117.198C117.131 8.45833 117.073 9.81667 117.023 11.7C117.006 11.8167 116.998 12 116.998 12.25L116.773 19H112.548L113.148 4.75H120.298L121.523 10.9L121.823 12.55C121.956 12.0333 122.081 11.4583 122.198 10.825L123.348 4.75H130.648L131.223 19ZM140.054 19L139.654 17.425C138.887 18.675 137.82 19.3 136.454 19.3C135.337 19.3 134.42 18.9917 133.704 18.375C133.004 17.7417 132.654 16.8583 132.654 15.725C132.654 15.025 132.854 14.4167 133.254 13.9C133.67 13.3667 134.237 12.9917 134.954 12.775C135.887 12.5083 137.329 12.3583 139.279 12.325C139.279 11.225 139.229 10.6417 139.129 10.575C139.045 10.5083 138.779 10.475 138.329 10.475C138.045 10.475 137.654 10.4917 137.154 10.525C136.354 10.5583 135.27 10.65 133.904 10.8C133.77 9.9 133.67 8.93333 133.604 7.9C134.487 7.71667 135.412 7.56667 136.379 7.45C137.345 7.31667 138.212 7.25 138.979 7.25C140.312 7.25 141.312 7.475 141.979 7.925C142.645 8.35833 143.079 8.93333 143.279 9.65C143.479 10.3667 143.57 11.275 143.554 12.375L143.529 16.05L143.604 19H140.054ZM137.904 16.5C138.337 16.5 138.795 16.4167 139.279 16.25V14.4H139.079C137.845 14.4 137.162 14.4667 137.029 14.6C136.945 14.6833 136.879 14.8083 136.829 14.975C136.795 15.1417 136.779 15.3 136.779 15.45C136.779 15.85 136.87 16.125 137.054 16.275C137.237 16.425 137.52 16.5 137.904 16.5ZM156.609 8.225C156.759 8.40833 156.867 8.86667 156.934 9.6C157.017 10.3333 157.059 11.45 157.059 12.95V19H152.784V13V11.975C152.784 11.4417 152.742 11.1083 152.659 10.975C152.526 10.8083 152.217 10.725 151.734 10.725C151.501 10.725 151.326 10.7333 151.209 10.75C150.742 10.7667 150.259 10.875 149.759 11.075V19H145.484V7.5H148.959L149.434 9.425C150.634 7.975 152.067 7.25 153.734 7.25C154.334 7.25 154.892 7.33333 155.409 7.5C155.942 7.66667 156.342 7.90833 156.609 8.225ZM165.884 19L165.484 17.425C164.717 18.675 163.65 19.3 162.284 19.3C161.167 19.3 160.25 18.9917 159.534 18.375C158.834 17.7417 158.484 16.8583 158.484 15.725C158.484 15.025 158.684 14.4167 159.084 13.9C159.5 13.3667 160.067 12.9917 160.784 12.775C161.717 12.5083 163.159 12.3583 165.109 12.325C165.109 11.225 165.059 10.6417 164.959 10.575C164.875 10.5083 164.609 10.475 164.159 10.475C163.875 10.475 163.484 10.4917 162.984 10.525C162.184 10.5583 161.1 10.65 159.734 10.8C159.6 9.9 159.5 8.93333 159.434 7.9C160.317 7.71667 161.242 7.56667 162.209 7.45C163.175 7.31667 164.042 7.25 164.809 7.25C166.142 7.25 167.142 7.475 167.809 7.925C168.475 8.35833 168.909 8.93333 169.109 9.65C169.309 10.3667 169.4 11.275 169.384 12.375L169.359 16.05L169.434 19H165.884ZM163.734 16.5C164.167 16.5 164.625 16.4167 165.109 16.25V14.4H164.909C163.675 14.4 162.992 14.4667 162.859 14.6C162.775 14.6833 162.709 14.8083 162.659 14.975C162.625 15.1417 162.609 15.3 162.609 15.45C162.609 15.85 162.7 16.125 162.884 16.275C163.067 16.425 163.35 16.5 163.734 16.5ZM177.314 7.3C178.097 7.3 178.914 7.35833 179.764 7.475C180.614 7.575 181.606 7.71667 182.739 7.9V17.85C182.739 20.2333 181.947 22.0833 180.364 23.4C180.164 23.5667 179.714 23.7083 179.014 23.825C178.314 23.9417 177.522 24 176.639 24C174.722 24 173.206 23.75 172.089 23.25C172.072 22.8833 172.097 22.4 172.164 21.8C172.247 21.2 172.331 20.725 172.414 20.375C173.614 20.5583 174.789 20.65 175.939 20.65C176.522 20.65 177.014 20.6167 177.414 20.55C177.831 20.5 178.089 20.4167 178.189 20.3C178.322 20.1667 178.422 19.6667 178.489 18.8C178.506 18.5667 178.514 18.225 178.514 17.775V17.15C178.097 17.7667 177.564 18.2083 176.914 18.475C176.264 18.7417 175.681 18.875 175.164 18.875C173.764 18.875 172.706 18.4167 171.989 17.5C171.272 16.5833 170.914 15.2417 170.914 13.475C170.914 12.3083 171.072 11.2167 171.389 10.2C171.722 9.16667 172.172 8.45 172.739 8.05C173.106 7.8 173.697 7.61667 174.514 7.5C175.347 7.36667 176.281 7.3 177.314 7.3ZM176.789 15.75C177.406 15.75 177.964 15.65 178.464 15.45V10.225C178.281 10.1917 178.006 10.1583 177.639 10.125C177.472 10.1083 177.222 10.1 176.889 10.1C176.372 10.1 176.047 10.15 175.914 10.25C175.731 10.3833 175.581 10.7583 175.464 11.375C175.364 11.975 175.314 12.6083 175.314 13.275C175.314 14.1917 175.414 14.8333 175.614 15.2C175.831 15.5667 176.222 15.75 176.789 15.75ZM191.741 16C192.158 16 192.933 15.9583 194.066 15.875C194.216 15.875 194.491 15.8583 194.891 15.825L195.266 18.4C193.983 19 192.316 19.3 190.266 19.3C188.35 19.3 186.875 18.8167 185.841 17.85C184.825 16.8833 184.316 15.425 184.316 13.475C184.316 12.475 184.441 11.5083 184.691 10.575C184.958 9.64167 185.258 8.99167 185.591 8.625C185.941 8.25833 186.591 7.94167 187.541 7.675C188.491 7.40833 189.433 7.275 190.366 7.275C191.866 7.275 192.991 7.54167 193.741 8.075C194.491 8.60833 194.983 9.35 195.216 10.3C195.45 11.2333 195.566 12.4917 195.566 14.075C194.433 14.1417 193.325 14.175 192.241 14.175H188.691C188.691 14.7083 188.8 15.1083 189.016 15.375C189.25 15.6417 189.575 15.8167 189.991 15.9C190.408 15.9667 190.991 16 191.741 16ZM188.941 10.25C188.841 10.3 188.766 10.5167 188.716 10.9C188.666 11.2833 188.633 11.7167 188.616 12.2H189.916C190.7 12.2 191.266 12.1917 191.616 12.175C191.616 11.375 191.5 10.8083 191.266 10.475C191.05 10.1417 190.666 9.975 190.116 9.975C189.666 9.975 189.275 10.0667 188.941 10.25ZM204.196 7.25C204.413 7.25 204.638 7.275 204.871 7.325C205.121 7.375 205.304 7.43333 205.421 7.5C205.421 7.86667 205.379 8.475 205.296 9.325C205.213 10.1583 205.138 10.75 205.071 11.1C204.904 11.0833 204.596 11.075 204.146 11.075C203.096 11.075 202.163 11.1333 201.346 11.25V19H197.071V7.5H200.646L201.146 9.35H201.171C201.654 8.71667 202.171 8.20833 202.721 7.825C203.271 7.44167 203.763 7.25 204.196 7.25Z" fill="white"/>
<path d="M56.6823 31.524V34.659C56.191 34.8203 55.7253 34.9377 55.2853 35.011C54.8453 35.0843 54.475 35.121 54.1743 35.121C53.177 35.121 52.396 34.8607 51.8313 34.34C51.2666 33.8193 50.9843 33.02 50.9843 31.942C50.9843 30.842 51.2813 30.0207 51.8753 29.478C52.4693 28.928 53.3053 28.653 54.3833 28.653C54.948 28.653 55.6263 28.7373 56.4183 28.906C56.4183 29.0527 56.4036 29.2727 56.3743 29.566C56.345 29.852 56.3156 30.0537 56.2863 30.171L55.8903 30.16C55.4063 30.1453 55.0286 30.138 54.7573 30.138C53.9433 30.138 53.4996 30.1857 53.4263 30.281C53.309 30.4203 53.2246 30.6367 53.1733 30.93C53.1293 31.2233 53.1073 31.5057 53.1073 31.777C53.1073 32.2683 53.1623 32.6497 53.2723 32.921C53.3823 33.1923 53.551 33.383 53.7783 33.493C54.0056 33.603 54.3136 33.658 54.7023 33.658H54.7463V31.524H56.6823ZM60.5874 33.68C60.7707 33.68 61.1117 33.6617 61.6104 33.625C61.6764 33.625 61.7974 33.6177 61.9734 33.603L62.1384 34.736C61.5737 35 60.8404 35.132 59.9384 35.132C59.095 35.132 58.446 34.9193 57.9914 34.494C57.544 34.0687 57.3204 33.427 57.3204 32.569C57.3204 32.129 57.3754 31.7037 57.4854 31.293C57.6027 30.8823 57.7347 30.5963 57.8814 30.435C58.0354 30.2737 58.3214 30.1343 58.7394 30.017C59.1574 29.8997 59.5717 29.841 59.9824 29.841C60.6424 29.841 61.1374 29.9583 61.4674 30.193C61.7974 30.4277 62.0137 30.754 62.1164 31.172C62.219 31.5827 62.2704 32.1363 62.2704 32.833C61.7717 32.8623 61.284 32.877 60.8074 32.877H59.2454C59.2454 33.1117 59.293 33.2877 59.3884 33.405C59.491 33.5223 59.634 33.5993 59.8174 33.636C60.0007 33.6653 60.2574 33.68 60.5874 33.68ZM59.3554 31.15C59.3114 31.172 59.2784 31.2673 59.2564 31.436C59.2344 31.6047 59.2197 31.7953 59.2124 32.008H59.7844C60.129 32.008 60.3784 32.0043 60.5324 31.997C60.5324 31.645 60.481 31.3957 60.3784 31.249C60.283 31.1023 60.1144 31.029 59.8724 31.029C59.6744 31.029 59.502 31.0693 59.3554 31.15ZM66.0674 29.83C66.1628 29.83 66.2618 29.841 66.3644 29.863C66.4744 29.885 66.5551 29.9107 66.6064 29.94C66.6064 30.1013 66.5881 30.369 66.5514 30.743C66.5148 31.1097 66.4818 31.37 66.4524 31.524C66.3791 31.5167 66.2434 31.513 66.0454 31.513C65.5834 31.513 65.1728 31.5387 64.8134 31.59V35H62.9324V29.94H64.5054L64.7254 30.754H64.7364C64.9491 30.4753 65.1764 30.2517 65.4184 30.083C65.6604 29.9143 65.8768 29.83 66.0674 29.83ZM70.1694 33.68C70.3527 33.68 70.6937 33.6617 71.1924 33.625C71.2584 33.625 71.3794 33.6177 71.5554 33.603L71.7204 34.736C71.1557 35 70.4224 35.132 69.5204 35.132C68.6771 35.132 68.0281 34.9193 67.5734 34.494C67.1261 34.0687 66.9024 33.427 66.9024 32.569C66.9024 32.129 66.9574 31.7037 67.0674 31.293C67.1847 30.8823 67.3167 30.5963 67.4634 30.435C67.6174 30.2737 67.9034 30.1343 68.3214 30.017C68.7394 29.8997 69.1537 29.841 69.5644 29.841C70.2244 29.841 70.7194 29.9583 71.0494 30.193C71.3794 30.4277 71.5957 30.754 71.6984 31.172C71.8011 31.5827 71.8524 32.1363 71.8524 32.833C71.3537 32.8623 70.8661 32.877 70.3894 32.877H68.8274C68.8274 33.1117 68.8751 33.2877 68.9704 33.405C69.0731 33.5223 69.2161 33.5993 69.3994 33.636C69.5827 33.6653 69.8394 33.68 70.1694 33.68ZM68.9374 31.15C68.8934 31.172 68.8604 31.2673 68.8384 31.436C68.8164 31.6047 68.8017 31.7953 68.7944 32.008H69.3664C69.7111 32.008 69.9604 32.0043 70.1144 31.997C70.1144 31.645 70.0631 31.3957 69.9604 31.249C69.8651 31.1023 69.6964 31.029 69.4544 31.029C69.2564 31.029 69.0841 31.0693 68.9374 31.15ZM77.4095 30.259C77.4755 30.3397 77.5231 30.5413 77.5525 30.864C77.5891 31.1867 77.6075 31.678 77.6075 32.338V35H75.7265V32.36V31.909C75.7265 31.6743 75.7081 31.5277 75.6715 31.469C75.6128 31.3957 75.4771 31.359 75.2645 31.359C75.1618 31.359 75.0848 31.3627 75.0335 31.37C74.8281 31.3773 74.6155 31.425 74.3955 31.513V35H72.5145V29.94H74.0435L74.2525 30.787C74.7805 30.149 75.4111 29.83 76.1445 29.83C76.4085 29.83 76.6541 29.8667 76.8815 29.94C77.1161 30.0133 77.2921 30.1197 77.4095 30.259ZM82.7334 34.846C82.1394 35.044 81.4757 35.143 80.7424 35.143C79.9211 35.143 79.3051 34.9377 78.8944 34.527C78.4911 34.109 78.2894 33.46 78.2894 32.58C78.2894 32.1473 78.3481 31.722 78.4654 31.304C78.5827 30.8787 78.7074 30.5927 78.8394 30.446C78.9934 30.2773 79.2941 30.1343 79.7414 30.017C80.1961 29.8997 80.6654 29.841 81.1494 29.841C81.6554 29.841 82.1651 29.885 82.6784 29.973C82.6637 30.1563 82.6381 30.3727 82.6014 30.622C82.5721 30.864 82.5391 31.0803 82.5024 31.271C82.0477 31.2417 81.6187 31.227 81.2154 31.227C80.8194 31.227 80.5664 31.249 80.4564 31.293C80.3977 31.315 80.3427 31.4653 80.2914 31.744C80.2474 32.0227 80.2254 32.283 80.2254 32.525C80.2254 32.8477 80.2694 33.097 80.3574 33.273C80.4527 33.4417 80.5994 33.559 80.7974 33.625C80.9954 33.691 81.2631 33.724 81.6004 33.724C81.7471 33.724 82.0697 33.7093 82.5684 33.68L82.7334 34.846ZM84.3431 29.313C84.0938 29.313 83.8774 29.2287 83.6941 29.06C83.5181 28.8913 83.4301 28.6897 83.4301 28.455C83.4301 28.2203 83.5181 28.0187 83.6941 27.85C83.8774 27.6813 84.0938 27.597 84.3431 27.597C84.5924 27.597 84.8051 27.6813 84.9811 27.85C85.1571 28.0187 85.2451 28.2203 85.2451 28.455C85.2451 28.6897 85.1571 28.8913 84.9811 29.06C84.8051 29.2287 84.5924 29.313 84.3431 29.313ZM83.3971 29.94H85.2781V35H83.3971V29.94ZM89.2248 35L89.0488 34.307C88.7114 34.857 88.2421 35.132 87.6408 35.132C87.1494 35.132 86.7461 34.9963 86.4308 34.725C86.1228 34.4463 85.9688 34.0577 85.9688 33.559C85.9688 33.251 86.0568 32.9833 86.2328 32.756C86.4161 32.5213 86.6654 32.3563 86.9808 32.261C87.3914 32.1437 88.0258 32.0777 88.8838 32.063C88.8838 31.579 88.8618 31.3223 88.8178 31.293C88.7811 31.2637 88.6638 31.249 88.4658 31.249C88.3411 31.249 88.1688 31.2563 87.9488 31.271C87.5968 31.2857 87.1201 31.326 86.5188 31.392C86.4601 30.996 86.4161 30.5707 86.3868 30.116C86.7754 30.0353 87.1824 29.9693 87.6078 29.918C88.0331 29.8593 88.4144 29.83 88.7518 29.83C89.3384 29.83 89.7784 29.929 90.0718 30.127C90.3651 30.3177 90.5558 30.5707 90.6438 30.886C90.7318 31.2013 90.7721 31.601 90.7648 32.085L90.7538 33.702L90.7868 35H89.2248ZM88.2788 33.9C88.4694 33.9 88.6711 33.8633 88.8838 33.79V32.976H88.7958C88.2531 32.976 87.9524 33.0053 87.8938 33.064C87.8571 33.1007 87.8278 33.1557 87.8058 33.229C87.7911 33.3023 87.7838 33.372 87.7838 33.438C87.7838 33.614 87.8241 33.735 87.9048 33.801C87.9854 33.867 88.1101 33.9 88.2788 33.9ZM99.5231 30.292C99.6404 30.468 99.6991 31.15 99.6991 32.338V35H97.8181V32.525V31.931C97.8181 31.6597 97.7924 31.4983 97.7411 31.447C97.6824 31.3883 97.5578 31.359 97.3671 31.359L97.2351 31.37C97.0078 31.3847 96.7914 31.436 96.5861 31.524C96.5934 31.678 96.5971 31.9493 96.5971 32.338V35H94.7161V32.525V31.865C94.7161 31.6377 94.6904 31.4983 94.6391 31.447C94.5804 31.3883 94.4558 31.359 94.2651 31.359L94.1331 31.37C93.9278 31.3773 93.7151 31.425 93.4951 31.513V35H91.6141V29.94H93.1431L93.3411 30.765C93.5831 30.4423 93.8618 30.2077 94.1771 30.061C94.4924 29.907 94.8114 29.83 95.1341 29.83C95.4054 29.83 95.6621 29.8703 95.9041 29.951C96.1534 30.0317 96.3258 30.1453 96.4211 30.292C96.4651 30.358 96.5018 30.479 96.5311 30.655C96.7658 30.369 97.0334 30.16 97.3341 30.028C97.6348 29.896 97.9354 29.83 98.2361 29.83C98.5074 29.83 98.7641 29.8703 99.0061 29.951C99.2554 30.0317 99.4278 30.1453 99.5231 30.292ZM103.642 33.68C103.825 33.68 104.166 33.6617 104.665 33.625C104.731 33.625 104.852 33.6177 105.028 33.603L105.193 34.736C104.628 35 103.895 35.132 102.993 35.132C102.15 35.132 101.501 34.9193 101.046 34.494C100.599 34.0687 100.375 33.427 100.375 32.569C100.375 32.129 100.43 31.7037 100.54 31.293C100.657 30.8823 100.789 30.5963 100.936 30.435C101.09 30.2737 101.376 30.1343 101.794 30.017C102.212 29.8997 102.626 29.841 103.037 29.841C103.697 29.841 104.192 29.9583 104.522 30.193C104.852 30.4277 105.068 30.754 105.171 31.172C105.274 31.5827 105.325 32.1363 105.325 32.833C104.826 32.8623 104.339 32.877 103.862 32.877H102.3C102.3 33.1117 102.348 33.2877 102.443 33.405C102.546 33.5223 102.689 33.5993 102.872 33.636C103.055 33.6653 103.312 33.68 103.642 33.68ZM102.41 31.15C102.366 31.172 102.333 31.2673 102.311 31.436C102.289 31.6047 102.274 31.7953 102.267 32.008H102.839C103.184 32.008 103.433 32.0043 103.587 31.997C103.587 31.645 103.536 31.3957 103.433 31.249C103.338 31.1023 103.169 31.029 102.927 31.029C102.729 31.029 102.557 31.0693 102.41 31.15ZM110.882 30.259C110.948 30.3397 110.996 30.5413 111.025 30.864C111.062 31.1867 111.08 31.678 111.08 32.338V35H109.199V32.36V31.909C109.199 31.6743 109.181 31.5277 109.144 31.469C109.085 31.3957 108.95 31.359 108.737 31.359C108.634 31.359 108.557 31.3627 108.506 31.37C108.301 31.3773 108.088 31.425 107.868 31.513V35H105.987V29.94H107.516L107.725 30.787C108.253 30.149 108.884 29.83 109.617 29.83C109.881 29.83 110.127 29.8667 110.354 29.94C110.589 30.0133 110.765 30.1197 110.882 30.259ZM114.281 32.921C114.281 33.053 114.285 33.1923 114.292 33.339C114.299 33.4783 114.321 33.5663 114.358 33.603C114.409 33.6543 114.589 33.68 114.897 33.68L115.271 33.669C115.337 34.021 115.37 34.428 115.37 34.89C115.231 34.9413 115.025 34.989 114.754 35.033C114.49 35.077 114.237 35.099 113.995 35.099C113.489 35.099 113.097 34.989 112.818 34.769C112.547 34.5417 112.411 34.1933 112.411 33.724V31.018H111.586V30.017L112.411 29.94L112.906 28.73L114.281 28.653V29.94H115.447V31.018H114.281V32.921ZM118.452 35.143C117.572 35.143 116.912 34.9377 116.472 34.527C116.039 34.109 115.823 33.4527 115.823 32.558C115.823 32.0667 115.867 31.6377 115.955 31.271C116.05 30.897 116.164 30.6367 116.296 30.49C116.464 30.2993 116.772 30.1417 117.22 30.017C117.674 29.8923 118.1 29.83 118.496 29.83C119.442 29.83 120.116 30.0317 120.52 30.435C120.923 30.8383 121.125 31.4837 121.125 32.371C121.125 33.3243 120.908 34.0247 120.476 34.472C120.043 34.9193 119.368 35.143 118.452 35.143ZM118.485 33.856C118.771 33.856 118.958 33.757 119.046 33.559C119.134 33.3537 119.178 32.9943 119.178 32.481C119.178 32.1217 119.159 31.8467 119.123 31.656C119.086 31.458 119.016 31.315 118.914 31.227C118.818 31.1317 118.668 31.084 118.463 31.084C118.169 31.084 118.001 31.1097 117.957 31.161C117.898 31.2123 117.85 31.3737 117.814 31.645C117.777 31.9163 117.759 32.1987 117.759 32.492C117.759 32.9907 117.806 33.3427 117.902 33.548C118.004 33.7533 118.199 33.856 118.485 33.856ZM128.535 28.323V35H126.984L126.83 34.153C126.683 34.439 126.467 34.6663 126.181 34.835C125.895 35.0037 125.572 35.088 125.213 35.088C124.641 35.088 124.183 34.8827 123.838 34.472C123.501 34.0613 123.332 33.4453 123.332 32.624C123.332 32.0007 123.405 31.4873 123.552 31.084C123.699 30.6807 123.871 30.391 124.069 30.215C124.194 30.105 124.447 30.0133 124.828 29.94C125.217 29.8667 125.561 29.83 125.862 29.83C126.126 29.83 126.397 29.8557 126.676 29.907C126.654 29.555 126.643 29.3607 126.643 29.324V28.4L128.535 28.323ZM126.038 33.614C126.236 33.614 126.441 33.581 126.654 33.515V31.128C126.441 31.0987 126.207 31.084 125.95 31.084C125.73 31.084 125.591 31.1023 125.532 31.139C125.451 31.1977 125.385 31.3663 125.334 31.645C125.29 31.9163 125.268 32.2023 125.268 32.503C125.268 32.9503 125.334 33.2473 125.466 33.394C125.605 33.5407 125.796 33.614 126.038 33.614ZM132.506 33.68C132.69 33.68 133.031 33.6617 133.529 33.625C133.595 33.625 133.716 33.6177 133.892 33.603L134.057 34.736C133.493 35 132.759 35.132 131.857 35.132C131.014 35.132 130.365 34.9193 129.91 34.494C129.463 34.0687 129.239 33.427 129.239 32.569C129.239 32.129 129.294 31.7037 129.404 31.293C129.522 30.8823 129.654 30.5963 129.8 30.435C129.954 30.2737 130.24 30.1343 130.658 30.017C131.076 29.8997 131.491 29.841 131.901 29.841C132.561 29.841 133.056 29.9583 133.386 30.193C133.716 30.4277 133.933 30.754 134.035 31.172C134.138 31.5827 134.189 32.1363 134.189 32.833C133.691 32.8623 133.203 32.877 132.726 32.877H131.164C131.164 33.1117 131.212 33.2877 131.307 33.405C131.41 33.5223 131.553 33.5993 131.736 33.636C131.92 33.6653 132.176 33.68 132.506 33.68ZM131.274 31.15C131.23 31.172 131.197 31.2673 131.175 31.436C131.153 31.6047 131.139 31.7953 131.131 32.008H131.703C132.048 32.008 132.297 32.0043 132.451 31.997C132.451 31.645 132.4 31.3957 132.297 31.249C132.202 31.1023 132.033 31.029 131.791 31.029C131.593 31.029 131.421 31.0693 131.274 31.15ZM136.55 28.73H141.115V30.05H138.53V31.194H140.708V32.382H138.53V33.658H141.104V35H136.55V28.73ZM145.947 33.284C145.947 33.9367 145.738 34.406 145.32 34.692C144.91 34.978 144.323 35.121 143.56 35.121C143.025 35.121 142.409 35.044 141.712 34.89C141.727 34.7433 141.76 34.5343 141.811 34.263C141.87 33.9843 141.918 33.7717 141.954 33.625C142.218 33.669 142.512 33.7057 142.834 33.735C143.157 33.757 143.432 33.768 143.659 33.768C143.857 33.768 143.978 33.757 144.022 33.735C144.03 33.7277 144.037 33.7093 144.044 33.68C144.059 33.6433 144.066 33.6067 144.066 33.57C144.066 33.4233 143.975 33.3243 143.791 33.273C143.733 33.2583 143.509 33.196 143.12 33.086C142.732 32.976 142.413 32.778 142.163 32.492C141.921 32.1987 141.8 31.8357 141.8 31.403C141.8 31.1757 141.852 30.9227 141.954 30.644C142.057 30.3653 142.167 30.1893 142.284 30.116C142.372 30.0573 142.585 29.9987 142.922 29.94C143.26 29.874 143.571 29.841 143.857 29.841C144.466 29.841 145.078 29.885 145.694 29.973C145.694 30.105 145.676 30.3287 145.639 30.644C145.603 30.952 145.57 31.1463 145.54 31.227C144.917 31.1463 144.415 31.106 144.033 31.106C143.835 31.106 143.707 31.117 143.648 31.139C143.634 31.1463 143.619 31.1683 143.604 31.205C143.59 31.2343 143.582 31.2747 143.582 31.326C143.582 31.4287 143.615 31.502 143.681 31.546C143.747 31.5973 143.92 31.6597 144.198 31.733C144.528 31.8283 144.811 31.9273 145.045 32.03C145.287 32.1327 145.496 32.2867 145.672 32.492C145.856 32.6973 145.947 32.9613 145.947 33.284ZM148.903 32.921C148.903 33.053 148.907 33.1923 148.914 33.339C148.921 33.4783 148.943 33.5663 148.98 33.603C149.031 33.6543 149.211 33.68 149.519 33.68L149.893 33.669C149.959 34.021 149.992 34.428 149.992 34.89C149.853 34.9413 149.647 34.989 149.376 35.033C149.112 35.077 148.859 35.099 148.617 35.099C148.111 35.099 147.719 34.989 147.44 34.769C147.169 34.5417 147.033 34.1933 147.033 33.724V31.018H146.208V30.017L147.033 29.94L147.528 28.73L148.903 28.653V29.94H150.069V31.018H148.903V32.921ZM153.074 35.143C152.194 35.143 151.534 34.9377 151.094 34.527C150.661 34.109 150.445 33.4527 150.445 32.558C150.445 32.0667 150.489 31.6377 150.577 31.271C150.672 30.897 150.786 30.6367 150.918 30.49C151.086 30.2993 151.394 30.1417 151.842 30.017C152.296 29.8923 152.722 29.83 153.118 29.83C154.064 29.83 154.738 30.0317 155.142 30.435C155.545 30.8383 155.747 31.4837 155.747 32.371C155.747 33.3243 155.53 34.0247 155.098 34.472C154.665 34.9193 153.99 35.143 153.074 35.143ZM153.107 33.856C153.393 33.856 153.58 33.757 153.668 33.559C153.756 33.3537 153.8 32.9943 153.8 32.481C153.8 32.1217 153.781 31.8467 153.745 31.656C153.708 31.458 153.638 31.315 153.536 31.227C153.44 31.1317 153.29 31.084 153.085 31.084C152.791 31.084 152.623 31.1097 152.579 31.161C152.52 31.2123 152.472 31.3737 152.436 31.645C152.399 31.9163 152.381 32.1987 152.381 32.492C152.381 32.9907 152.428 33.3427 152.524 33.548C152.626 33.7533 152.821 33.856 153.107 33.856ZM159.061 29.841C159.845 29.841 160.656 29.951 161.492 30.171V36.54L159.611 36.617V35.165C159.611 34.8863 159.666 34.56 159.776 34.186L159.743 34.164C159.559 34.494 159.321 34.7287 159.028 34.868C158.734 35 158.459 35.066 158.203 35.066C157.631 35.066 157.169 34.8643 156.817 34.461C156.465 34.0503 156.289 33.4343 156.289 32.613C156.289 32.063 156.358 31.5643 156.498 31.117C156.637 30.6697 156.806 30.38 157.004 30.248C157.216 30.1087 157.506 30.006 157.873 29.94C158.239 29.874 158.635 29.841 159.061 29.841ZM158.995 33.537C159.171 33.537 159.376 33.504 159.611 33.438V31.139C159.523 31.1243 159.391 31.1097 159.215 31.095C159.149 31.0877 159.05 31.084 158.918 31.084C158.632 31.084 158.47 31.1133 158.434 31.172C158.368 31.2747 158.316 31.4617 158.28 31.733C158.243 31.9897 158.225 32.239 158.225 32.481C158.225 32.8623 158.287 33.1337 158.412 33.295C158.536 33.4563 158.731 33.537 158.995 33.537ZM167.444 29.94V35H165.915L165.706 34.153C165.178 34.791 164.547 35.11 163.814 35.11C163.55 35.11 163.3 35.0733 163.066 35C162.838 34.9267 162.666 34.8203 162.549 34.681C162.483 34.6003 162.431 34.3987 162.395 34.076C162.365 33.7533 162.351 33.262 162.351 32.602V29.94H164.232V32.58C164.232 32.7267 164.235 32.899 164.243 33.097C164.25 33.295 164.272 33.4197 164.309 33.471C164.36 33.5443 164.507 33.581 164.749 33.581L164.925 33.57C165.13 33.5627 165.343 33.515 165.563 33.427V29.94H167.444ZM171.415 33.68C171.598 33.68 171.939 33.6617 172.438 33.625C172.504 33.625 172.625 33.6177 172.801 33.603L172.966 34.736C172.401 35 171.668 35.132 170.766 35.132C169.922 35.132 169.273 34.9193 168.819 34.494C168.371 34.0687 168.148 33.427 168.148 32.569C168.148 32.129 168.203 31.7037 168.313 31.293C168.43 30.8823 168.562 30.5963 168.709 30.435C168.863 30.2737 169.149 30.1343 169.567 30.017C169.985 29.8997 170.399 29.841 170.81 29.841C171.47 29.841 171.965 29.9583 172.295 30.193C172.625 30.4277 172.841 30.754 172.944 31.172C173.046 31.5827 173.098 32.1363 173.098 32.833C172.599 32.8623 172.111 32.877 171.635 32.877H170.073C170.073 33.1117 170.12 33.2877 170.216 33.405C170.318 33.5223 170.461 33.5993 170.645 33.636C170.828 33.6653 171.085 33.68 171.415 33.68ZM170.183 31.15C170.139 31.172 170.106 31.2673 170.084 31.436C170.062 31.6047 170.047 31.7953 170.04 32.008H170.612C170.956 32.008 171.206 32.0043 171.36 31.997C171.36 31.645 171.308 31.3957 171.206 31.249C171.11 31.1023 170.942 31.029 170.7 31.029C170.502 31.029 170.329 31.0693 170.183 31.15Z" fill="white"/>
</svg>
